<svg width="49" height="49" viewBox="0 0 49 49" fill="none" xmlns="http://www.w3.org/2000/svg">
<g clip-path="url(#clip0_7_103)">
<path d="M18.375 6.125C18.375 7.74945 19.0203 9.30737 20.1689 10.456C21.3176 11.6047 22.8755 12.25 24.5 12.25C26.1244 12.25 27.6823 11.6047 28.831 10.456C29.9797 9.30737 30.625 7.74945 30.625 6.125H42.875C43.4165 6.125 43.9358 6.3401 44.3187 6.72299C44.7015 7.10588 44.9166 7.62518 44.9166 8.16667V22.4583C44.9166 22.9998 44.7015 23.5191 44.3187 23.902C43.9358 24.2849 43.4165 24.5 42.875 24.5H38.7896L38.7916 40.8333C38.7916 41.3748 38.5765 41.8941 38.1937 42.277C37.8108 42.6599 37.2915 42.875 36.75 42.875H12.25C11.7085 42.875 11.1892 42.6599 10.8063 42.277C10.4234 41.8941 10.2083 41.3748 10.2083 40.8333L10.2063 24.498L6.12498 24.5C5.5835 24.5 5.06419 24.2849 4.6813 23.902C4.29842 23.5191 4.08331 22.9998 4.08331 22.4583V8.16667C4.08331 7.62518 4.29842 7.10588 4.6813 6.72299C5.06419 6.3401 5.5835 6.125 6.12498 6.125H18.375ZM40.8333 10.2063H33.8569L33.8222 10.29C33.048 12.021 31.807 13.5023 30.2384 14.5679C28.6698 15.6334 26.8355 16.2412 24.941 16.3231L24.5 16.3333C22.5285 16.3335 20.5992 15.7629 18.945 14.6905C17.2907 13.6182 15.9823 12.0898 15.1777 10.29L15.141 10.2083H8.16665V20.4167L14.2896 20.4146V38.7917H34.7083L34.7063 20.4167L40.8333 20.4146V10.2063Z" fill="white"/>
</g>
<defs>
<clipPath id="clip0_7_103">
<rect width="49" height="49" fill="white"/>
</clipPath>
</defs>
</svg>
