<svg width="169" height="45" viewBox="0 0 169 45" fill="none" xmlns="http://www.w3.org/2000/svg">
<path d="M14.9082 8.25586C15.6465 8.25586 16.3965 8.34375 17.1582 8.51953C17.9316 8.69531 18.6289 9 19.25 9.43359C19.8711 9.86719 20.3809 10.4531 20.7793 11.1914C21.1777 11.9297 21.377 12.8613 21.377 13.9863C21.377 14.8652 21.2422 15.6562 20.9727 16.3594C20.7148 17.0625 20.375 17.6895 19.9531 18.2402C19.5312 18.791 19.0566 19.2773 18.5293 19.6992C18.002 20.1094 17.4746 20.4609 16.9473 20.7539C16.4199 21.0469 15.916 21.293 15.4355 21.4922C14.9668 21.6797 14.5742 21.8262 14.2578 21.9316C14.7383 21.9316 15.3184 21.9902 15.998 22.1074C16.6895 22.2129 17.4102 22.4004 18.1602 22.6699C18.9219 22.9395 19.6719 23.3027 20.4102 23.7598C21.1484 24.2168 21.8105 24.7969 22.3965 25.5C22.9941 26.2031 23.4746 27.041 23.8379 28.0137C24.2129 28.9746 24.4004 30.0938 24.4004 31.3711C24.4004 32.4961 24.2773 33.5039 24.0312 34.3945C23.7852 35.2852 23.4512 36.0762 23.0293 36.7676C22.6074 37.459 22.1211 38.0566 21.5703 38.5605C21.0195 39.0645 20.4395 39.4863 19.8301 39.8262C19.2207 40.166 18.5996 40.4297 17.9668 40.6172C17.3457 40.8047 16.7539 40.9277 16.1914 40.9863C15.582 41.0566 15.0137 41.1035 14.4863 41.127C13.959 41.1504 13.4727 41.1621 13.0273 41.1621C12.3008 41.1621 11.6387 41.1445 11.041 41.1094C10.4434 41.0742 9.8457 41.0566 9.24805 41.0566C8.47461 41.0566 7.74805 41.1328 7.06836 41.2852C6.38867 41.4492 5.76172 41.6484 5.1875 41.8828C4.61328 42.1172 4.08594 42.375 3.60547 42.6562C3.13672 42.9375 2.70898 43.1953 2.32227 43.4297C1.94727 43.6641 1.61914 43.8574 1.33789 44.0098C1.06836 44.1738 0.839844 44.2559 0.652344 44.2559C0.382812 44.2559 0.248047 44.1094 0.248047 43.8164C0.248047 43.5938 0.365234 43.3711 0.599609 43.1484C0.845703 42.9258 1.15625 42.6914 1.53125 42.4453C1.90625 42.1992 2.31641 41.9414 2.76172 41.6719C3.21875 41.4023 3.65234 41.1094 4.0625 40.793C4.32031 40.5938 4.55469 40.377 4.76562 40.1426C4.98828 39.9082 5.18164 39.6387 5.3457 39.334C5.52148 39.041 5.66211 38.7012 5.76758 38.3145C5.88477 37.916 5.97852 37.459 6.04883 36.9434C6.14258 36.2168 6.20703 35.3145 6.24219 34.2363C6.27734 33.1582 6.29492 31.9512 6.29492 30.6152C6.29492 29.9121 6.30078 29.0684 6.3125 28.084C6.32422 27.0996 6.33008 26.0566 6.33008 24.9551C6.33008 23.8184 6.31836 22.6582 6.29492 21.4746C6.27148 20.291 6.21875 19.166 6.13672 18.0996C6.06641 17.0215 5.96094 16.043 5.82031 15.1641C5.69141 14.2852 5.51562 13.5879 5.29297 13.0723C5.09375 12.6152 4.85352 12.2285 4.57227 11.9121C4.30273 11.584 3.99219 11.3145 3.64062 11.1035C3.30078 10.8809 2.93164 10.7051 2.5332 10.5762C2.14648 10.4473 1.74219 10.3477 1.32031 10.2773C1.01562 10.2188 0.810547 10.1543 0.705078 10.084C0.611328 10.002 0.564453 9.9082 0.564453 9.80273C0.564453 9.69727 0.605469 9.62695 0.6875 9.5918C0.78125 9.54492 0.898438 9.52148 1.03906 9.52148C1.25 9.52148 1.47266 9.53906 1.70703 9.57422C1.94141 9.59766 2.21094 9.62695 2.51562 9.66211C2.83203 9.69727 3.18359 9.73242 3.57031 9.76758C3.95703 9.79102 4.4082 9.80273 4.92383 9.80273C5.99023 9.80273 6.93359 9.72656 7.75391 9.57422C8.58594 9.41016 9.37109 9.23438 10.1094 9.04688C10.8594 8.84766 11.6094 8.66602 12.3594 8.50195C13.1211 8.33789 13.9707 8.25586 14.9082 8.25586ZM8.89648 10.207C8.93164 10.7344 8.9668 11.3086 9.00195 11.9297C9.03711 12.5508 9.07812 13.1953 9.125 13.8633C9.17188 14.5195 9.21289 15.1875 9.24805 15.8672C9.29492 16.5352 9.3418 17.1797 9.38867 17.8008C9.48242 19.2656 9.58203 20.7539 9.6875 22.2656C11.0469 22.1719 12.2656 21.8789 13.3438 21.3867C13.8008 21.1758 14.2461 20.9121 14.6797 20.5957C15.125 20.2793 15.5176 19.8926 15.8574 19.4355C16.209 18.9785 16.4902 18.4453 16.7012 17.8359C16.9121 17.2148 17.0176 16.5059 17.0176 15.709C17.0176 14.5605 16.877 13.6055 16.5957 12.8438C16.3145 12.082 15.9395 11.4727 15.4707 11.0156C15.002 10.5586 14.457 10.2363 13.8359 10.0488C13.2148 9.86133 12.5645 9.76758 11.8848 9.76758C11.3223 9.76758 10.7832 9.80859 10.2676 9.89062C9.76367 9.97266 9.30664 10.0781 8.89648 10.207ZM9.75781 23.5488C9.79297 24.2051 9.83398 24.9434 9.88086 25.7637C9.93945 26.584 9.99805 27.4219 10.0566 28.2773C10.1152 29.1328 10.1738 29.9883 10.2324 30.8438C10.3027 31.6875 10.3613 32.4727 10.4082 33.1992C10.4668 33.9258 10.5195 34.5703 10.5664 35.1328C10.6133 35.6836 10.6543 36.0938 10.6895 36.3633C10.748 36.9492 10.8535 37.4883 11.0059 37.9805C11.1699 38.4727 11.3926 38.8945 11.6738 39.2461C11.9551 39.5977 12.3066 39.873 12.7285 40.0723C13.1504 40.2715 13.6602 40.3711 14.2578 40.3711C15.0781 40.3711 15.834 40.2012 16.5254 39.8613C17.2285 39.5332 17.832 39.0176 18.3359 38.3145C18.8516 37.6113 19.25 36.7266 19.5312 35.6602C19.8242 34.582 19.9707 33.3047 19.9707 31.8281C19.9707 30.3984 19.7891 29.1387 19.4258 28.0488C19.0742 26.9473 18.582 26.0273 17.9492 25.2891C17.3164 24.5391 16.5664 23.9766 15.6992 23.6016C14.8438 23.2148 13.9062 23.0215 12.8867 23.0215C12.2539 23.0215 11.6504 23.0742 11.0762 23.1797C10.502 23.2852 10.0625 23.4082 9.75781 23.5488ZM31.5898 16.5703C31.5898 16.7109 31.584 16.9102 31.5723 17.168C31.5605 17.4141 31.5547 17.6719 31.5547 17.9414C31.5547 18.2812 31.5723 18.6445 31.6074 19.0312C31.6543 19.4062 31.707 19.7578 31.7656 20.0859C31.8359 20.4023 31.9004 20.6719 31.959 20.8945C32.0293 21.1055 32.0879 21.2109 32.1348 21.2109C32.1816 21.2109 32.2461 21.041 32.3281 20.7012C32.4219 20.3613 32.5508 19.9336 32.7148 19.418C32.8906 18.9023 33.1133 18.3516 33.3828 17.7656C33.6523 17.168 33.998 16.6113 34.4199 16.0957C34.8418 15.5801 35.3457 15.1523 35.9316 14.8125C36.5293 14.4727 37.2324 14.3027 38.041 14.3027C38.791 14.3027 39.418 14.4316 39.9219 14.6895C40.4375 14.9473 40.8477 15.2695 41.1523 15.6562C41.457 16.043 41.6738 16.4648 41.8027 16.9219C41.9316 17.3672 41.9961 17.7891 41.9961 18.1875C41.9961 18.8086 41.9141 19.3535 41.75 19.8223C41.5859 20.2793 41.3633 20.6602 41.082 20.9648C40.8125 21.2695 40.502 21.5039 40.1504 21.668C39.7988 21.8203 39.4414 21.8965 39.0781 21.8965C38.4102 21.8965 37.8652 21.7383 37.4434 21.4219C37.0215 21.1055 36.8105 20.6426 36.8105 20.0332C36.8105 19.7051 36.8516 19.4238 36.9336 19.1895C37.0273 18.9551 37.1445 18.7559 37.2852 18.5918C37.4375 18.4277 37.6133 18.293 37.8125 18.1875C38.0234 18.0703 38.252 17.9766 38.498 17.9062C39.002 17.7539 39.3418 17.5664 39.5176 17.3438C39.7051 17.1211 39.7988 16.8633 39.7988 16.5703C39.7988 16.3945 39.7637 16.2246 39.6934 16.0605C39.6348 15.8965 39.5293 15.75 39.377 15.6211C39.2363 15.4805 39.0488 15.3691 38.8145 15.2871C38.5918 15.2051 38.3164 15.1641 37.9883 15.1641C37.3203 15.1641 36.7344 15.3223 36.2305 15.6387C35.7266 15.9434 35.2871 16.3594 34.9121 16.8867C34.5371 17.4023 34.2266 18 33.9805 18.6797C33.7344 19.3594 33.5352 20.0742 33.3828 20.8242C33.2305 21.5625 33.1191 22.3125 33.0488 23.0742C32.9902 23.8242 32.9609 24.5273 32.9609 25.1836C32.9609 25.7812 32.9844 26.4316 33.0312 27.1348C33.0781 27.8262 33.1367 28.5234 33.207 29.2266C33.2891 29.9297 33.377 30.6152 33.4707 31.2832C33.5645 31.9512 33.6523 32.5605 33.7344 33.1113C33.8281 33.6621 33.9102 34.1367 33.9805 34.5352C34.0508 34.9336 34.1035 35.209 34.1387 35.3613C34.2676 35.8887 34.4668 36.2578 34.7363 36.4688C35.0176 36.668 35.3867 36.7676 35.8438 36.7676C36.043 36.7676 36.248 36.7617 36.459 36.75C36.6816 36.7383 36.8457 36.7324 36.9512 36.7324C37.2676 36.7324 37.4258 36.8496 37.4258 37.084C37.4258 37.2715 37.3379 37.3945 37.1621 37.4531C37.0215 37.5117 36.7695 37.5469 36.4062 37.5586C36.0547 37.5703 35.6387 37.582 35.1582 37.5938C34.6895 37.6055 34.1797 37.623 33.6289 37.6465C33.0781 37.6699 32.5449 37.7109 32.0293 37.7695C31.4551 37.8398 30.8984 37.9395 30.3594 38.0684C29.8203 38.1855 29.3223 38.3027 28.8652 38.4199C28.4082 38.5254 28.0039 38.6191 27.6523 38.7012C27.3008 38.7832 27.0195 38.8242 26.8086 38.8242C26.5859 38.8242 26.4336 38.7773 26.3516 38.6836C26.2695 38.5898 26.2285 38.4902 26.2285 38.3848C26.2285 38.209 26.2988 38.0859 26.4395 38.0156C26.5918 37.9336 26.7969 37.8516 27.0547 37.7695C27.2539 37.7109 27.4883 37.6523 27.7578 37.5938C28.0391 37.5234 28.3672 37.4062 28.7422 37.2422C29.1172 37.0781 29.375 36.8613 29.5156 36.5918C29.668 36.3105 29.7441 35.8887 29.7441 35.3262C29.7441 35.1504 29.7324 34.8574 29.709 34.4473C29.6855 34.0254 29.6504 33.5273 29.6035 32.9531C29.5684 32.3789 29.5215 31.752 29.4629 31.0723C29.416 30.3809 29.3633 29.6777 29.3047 28.9629C29.2461 28.2363 29.1816 27.5156 29.1113 26.8008C29.0527 26.0859 28.9941 25.418 28.9355 24.7969C28.877 24.1641 28.8184 23.6016 28.7598 23.1094C28.7129 22.6172 28.6719 22.2246 28.6367 21.9316C28.5898 21.5801 28.5195 21.3047 28.4258 21.1055C28.332 20.8945 28.2207 20.7363 28.0918 20.6309C27.9629 20.5254 27.8105 20.4609 27.6348 20.4375C27.4707 20.4023 27.2891 20.3848 27.0898 20.3848H26.3691C26.3105 20.3848 26.2344 20.3848 26.1406 20.3848C26.0586 20.373 25.9766 20.3555 25.8945 20.332C25.8125 20.2969 25.7422 20.25 25.6836 20.1914C25.6367 20.1328 25.6133 20.0566 25.6133 19.9629C25.6133 19.834 25.666 19.7402 25.7715 19.6816C25.877 19.623 26.0059 19.582 26.1582 19.5586C26.7441 19.4883 27.2715 19.3887 27.7402 19.2598C28.2207 19.1309 28.6895 18.8965 29.1465 18.5566C29.4277 18.334 29.7207 18.041 30.0254 17.6777C30.3418 17.3027 30.5996 16.9102 30.7988 16.5C30.9395 16.207 31.0918 16.0605 31.2559 16.0605C31.4082 16.0605 31.502 16.1191 31.5371 16.2363C31.5723 16.3535 31.5898 16.4648 31.5898 16.5703ZM45.248 19.4531C45.3184 19.4531 45.3828 19.5059 45.4414 19.6113C45.5 19.7168 45.5645 19.9863 45.6348 20.4199C45.7988 21.4043 45.9395 22.2949 46.0566 23.0918C46.1738 23.8887 46.2969 24.6211 46.4258 25.2891C46.707 26.8242 46.9824 28.1953 47.252 29.4023C47.5332 30.6094 47.8613 31.6289 48.2363 32.4609C48.6113 33.293 49.0684 33.9258 49.6074 34.3594C50.1582 34.793 50.8496 35.0098 51.6816 35.0098C52.2793 35.0098 52.8008 34.875 53.2461 34.6055C53.6914 34.3242 54.0664 33.9551 54.3711 33.498C54.6875 33.0293 54.9453 32.4961 55.1445 31.8984C55.3438 31.3008 55.4961 30.6855 55.6016 30.0527C55.7188 29.4082 55.7949 28.7695 55.8301 28.1367C55.877 27.4922 55.9004 26.9004 55.9004 26.3613C55.9004 25.8574 55.8887 25.3594 55.8652 24.8672C55.8418 24.375 55.7598 23.9355 55.6191 23.5488C55.4785 23.1504 55.2559 22.834 54.9512 22.5996C54.6582 22.3535 54.2305 22.2305 53.668 22.2305C53.3281 22.2305 52.9824 22.2598 52.6309 22.3184C52.2793 22.377 51.9395 22.4062 51.6113 22.4062C51.4473 22.4062 51.3066 22.3711 51.1895 22.3008C51.084 22.2305 51.0312 22.1191 51.0312 21.9668C51.0312 21.791 51.0957 21.6738 51.2246 21.6152C51.3535 21.5449 51.5176 21.498 51.7168 21.4746C51.9277 21.4629 52.1738 21.4453 52.4551 21.4219C52.7363 21.3984 53.041 21.3633 53.3691 21.3164C53.709 21.2578 54.0664 21.1875 54.4414 21.1055C54.8164 21.0117 55.2031 20.8828 55.6016 20.7188C55.9297 20.5781 56.2402 20.4141 56.5332 20.2266C56.8379 20.0391 57.1074 19.8633 57.3418 19.6992C57.5879 19.5234 57.7988 19.377 57.9746 19.2598C58.1621 19.1426 58.3086 19.084 58.4141 19.084C58.543 19.084 58.625 19.1895 58.6602 19.4004C58.707 19.5996 58.748 19.8809 58.7832 20.2441C58.8301 20.7363 58.877 21.3809 58.9238 22.1777C58.9824 22.9746 59.0469 23.8535 59.1172 24.8145C59.1992 25.7754 59.2871 26.7832 59.3809 27.8379C59.4863 28.8809 59.6094 29.9121 59.75 30.9316C59.8203 31.4707 59.9199 31.9102 60.0488 32.25C60.1777 32.5781 60.3301 32.8359 60.5059 33.0234C60.6816 33.2109 60.875 33.3398 61.0859 33.4102C61.3086 33.4688 61.5488 33.498 61.8066 33.498C62.334 33.498 62.8145 33.457 63.248 33.375C63.6934 33.2812 64.0273 33.2344 64.25 33.2344C64.4727 33.2344 64.6191 33.2754 64.6895 33.3574C64.7598 33.4395 64.7949 33.5332 64.7949 33.6387C64.7949 33.7441 64.7598 33.8496 64.6895 33.9551C64.6191 34.0488 64.4727 34.125 64.25 34.1836C63.9219 34.2539 63.4707 34.3242 62.8965 34.3945C62.3223 34.4531 61.6426 34.5352 60.8574 34.6406C60.2246 34.7344 59.6797 34.8398 59.2227 34.957C58.7773 35.0625 58.4258 35.1152 58.168 35.1152C57.9102 35.1152 57.7109 35.0566 57.5703 34.9395C57.4414 34.8223 57.3418 34.5938 57.2715 34.2539C57.2012 33.9141 57.1309 33.5449 57.0605 33.1465C56.9902 32.7363 56.9199 32.3262 56.8496 31.916C56.791 31.5059 56.7266 31.0957 56.6562 30.6855C56.5977 30.2754 56.5391 29.8887 56.4805 29.5254C56.3867 30.1582 56.2695 30.8145 56.1289 31.4941C55.9883 32.1738 55.8008 32.8418 55.5664 33.498C55.3438 34.1426 55.0684 34.7578 54.7402 35.3438C54.4238 35.918 54.0371 36.4219 53.5801 36.8555C53.123 37.2891 52.5898 37.6348 51.9805 37.8926C51.3828 38.1504 50.6973 38.2793 49.9238 38.2793C48.6582 38.2793 47.5742 37.9453 46.6719 37.2773C45.7812 36.5977 45.1016 35.6367 44.6328 34.3945C44.3633 33.7148 44.1465 32.9941 43.9824 32.2324C43.8184 31.4707 43.6836 30.7266 43.5781 30C43.4727 29.2734 43.3848 28.5996 43.3145 27.9785C43.2559 27.3457 43.1914 26.8184 43.1211 26.3965C43.0508 25.9629 42.957 25.6055 42.8398 25.3242C42.7344 25.0312 42.6113 24.8027 42.4707 24.6387C42.3301 24.4746 42.1719 24.3633 41.9961 24.3047C41.832 24.2344 41.6562 24.1992 41.4688 24.1992C41.2812 24.1992 41.0762 24.2285 40.8535 24.2871C40.6426 24.334 40.4258 24.3926 40.2031 24.4629C39.9922 24.5215 39.7871 24.5801 39.5879 24.6387C39.3887 24.6855 39.207 24.709 39.043 24.709C38.9375 24.709 38.8262 24.6797 38.709 24.6211C38.6035 24.5508 38.5508 24.4219 38.5508 24.2344C38.5508 24.0234 38.6445 23.8828 38.832 23.8125C39.0195 23.7305 39.2598 23.6426 39.5527 23.5488C39.916 23.4434 40.3438 23.2852 40.8359 23.0742C41.3398 22.8633 41.873 22.5703 42.4355 22.1953C42.9043 21.8789 43.291 21.5625 43.5957 21.2461C43.9121 20.918 44.1699 20.625 44.3691 20.3672C44.5801 20.0977 44.75 19.8809 44.8789 19.7168C45.0195 19.541 45.1426 19.4531 45.248 19.4531ZM72.0371 16.4648C72.5176 16.4648 72.9219 16.4883 73.25 16.5352C73.5898 16.582 73.877 16.6406 74.1113 16.7109C74.3574 16.7695 74.5684 16.8223 74.7441 16.8691C74.9199 16.916 75.0957 16.9395 75.2715 16.9395C75.4707 16.9395 75.623 16.834 75.7285 16.623C75.8457 16.4121 75.957 16.1543 76.0625 15.8496C76.2148 15.4395 76.3965 15.2344 76.6074 15.2344C76.7949 15.2344 76.9121 15.293 76.959 15.4102C77.0176 15.5273 77.0469 15.6387 77.0469 15.7441C77.0469 15.8848 77.0293 16.0312 76.9941 16.1836C76.9707 16.3242 76.9297 16.5117 76.8711 16.7461C76.8125 16.9805 76.7422 17.2734 76.6602 17.625C76.5898 17.9766 76.5137 18.416 76.4316 18.9434C76.3613 19.377 76.3027 19.752 76.2559 20.0684C76.2207 20.3848 76.1914 20.666 76.168 20.9121C76.1562 21.1582 76.1387 21.3809 76.1152 21.5801C76.0918 21.7793 76.0625 21.9844 76.0273 22.1953C75.957 22.6406 75.8047 22.8633 75.5703 22.8633C75.418 22.8633 75.3184 22.793 75.2715 22.6523C75.2246 22.5 75.2012 22.3359 75.2012 22.1602V20.7891C75.2012 20.0977 75.1191 19.5176 74.9551 19.0488C74.8027 18.5801 74.5859 18.2051 74.3047 17.9238C74.0352 17.6426 73.707 17.4434 73.3203 17.3262C72.9453 17.209 72.541 17.1504 72.1074 17.1504C71.7207 17.1504 71.3457 17.2148 70.9824 17.3438C70.6309 17.4727 70.3203 17.666 70.0508 17.9238C69.7812 18.1699 69.5645 18.4746 69.4004 18.8379C69.2363 19.2012 69.1543 19.6113 69.1543 20.0684C69.1543 20.666 69.2949 21.2461 69.5762 21.8086C69.8574 22.3711 70.2266 22.9219 70.6836 23.4609C71.1406 24 71.6562 24.5449 72.2305 25.0957C72.8164 25.6348 73.4141 26.1914 74.0234 26.7656C74.6445 27.3398 75.2422 27.9375 75.8164 28.5586C76.4023 29.1797 76.9238 29.8418 77.3809 30.5449C77.8379 31.2363 78.207 31.9746 78.4883 32.7598C78.7695 33.5449 78.9102 34.3887 78.9102 35.291C78.9102 36.498 78.7227 37.5703 78.3477 38.5078C77.9727 39.4336 77.4688 40.2129 76.8359 40.8457C76.2031 41.4785 75.4648 41.959 74.6211 42.2871C73.7773 42.6152 72.8809 42.7793 71.9316 42.7793C71.2754 42.7793 70.6602 42.709 70.0859 42.5684C69.5234 42.4277 69.002 42.2461 68.5215 42.0234C68.0527 41.8008 67.6309 41.543 67.2559 41.25C66.8809 40.9688 66.5645 40.6875 66.3066 40.4062C65.8262 39.8672 65.416 39.457 65.0762 39.1758C64.7363 38.8945 64.3672 38.7539 63.9688 38.7539C63.7578 38.7539 63.5293 38.8301 63.2832 38.9824C63.0371 39.1348 62.791 39.2988 62.5449 39.4746C62.3105 39.6504 62.0879 39.8145 61.877 39.9668C61.666 40.1191 61.4902 40.1953 61.3496 40.1953C61.2207 40.1953 61.127 40.1543 61.0684 40.0723C61.0098 40.002 60.9805 39.9316 60.9805 39.8613C60.9805 39.7207 61.0684 39.5684 61.2441 39.4043C61.3145 39.334 61.4492 39.2051 61.6484 39.0176C61.8594 38.8301 62.1172 38.584 62.4219 38.2793C62.7266 37.9746 63.0664 37.5996 63.4414 37.1543C63.8281 36.709 64.2324 36.1934 64.6543 35.6074C65.0527 35.0566 65.3809 34.541 65.6387 34.0605C65.8965 33.5684 66.1191 33.1465 66.3066 32.7949C66.4941 32.4316 66.6582 32.1445 66.7988 31.9336C66.9512 31.7227 67.1152 31.6172 67.291 31.6172C67.4668 31.6172 67.5781 31.6699 67.625 31.7754C67.6836 31.8809 67.7129 31.998 67.7129 32.127C67.7129 32.3027 67.6484 32.5312 67.5195 32.8125C67.3906 33.0938 67.25 33.4336 67.0977 33.832C66.957 34.2305 66.8223 34.6934 66.6934 35.2207C66.5645 35.748 66.5 36.3457 66.5 37.0137C66.5 37.4004 66.5762 37.8516 66.7285 38.3672C66.8809 38.8828 67.127 39.3691 67.4668 39.8262C67.8066 40.2832 68.252 40.6699 68.8027 40.9863C69.3652 41.3145 70.0449 41.4785 70.8418 41.4785C71.4746 41.4785 72.043 41.3613 72.5469 41.127C73.0625 40.8926 73.502 40.5586 73.8652 40.125C74.2285 39.7031 74.5039 39.1992 74.6914 38.6133C74.8906 38.0156 74.9902 37.3535 74.9902 36.627C74.9902 35.7012 74.7734 34.8105 74.3398 33.9551C73.9062 33.0879 73.3613 32.2441 72.7051 31.4238C72.0488 30.5918 71.3398 29.7773 70.5781 28.9805C69.8164 28.1836 69.1074 27.3926 68.4512 26.6074C67.7949 25.8105 67.25 25.0137 66.8164 24.2168C66.3828 23.4199 66.166 22.6113 66.166 21.791C66.166 20.877 66.3359 20.0859 66.6758 19.418C67.0156 18.7383 67.4609 18.1816 68.0117 17.748C68.5742 17.3145 69.2012 16.9922 69.8926 16.7812C70.5957 16.5703 71.3105 16.4648 72.0371 16.4648ZM84.5 10.8047C85.1914 10.8047 85.7422 10.9863 86.1523 11.3496C86.5625 11.7129 86.7676 12.2285 86.7676 12.8965C86.7676 13.3418 86.6973 13.7168 86.5566 14.0215C86.416 14.3145 86.2344 14.5547 86.0117 14.7422C85.7891 14.918 85.543 15.0469 85.2734 15.1289C85.0156 15.1992 84.7578 15.2344 84.5 15.2344C84.2773 15.2344 84.043 15.1992 83.7969 15.1289C83.5508 15.0586 83.3223 14.9414 83.1113 14.7773C82.9004 14.6016 82.7246 14.3789 82.584 14.1094C82.4551 13.8281 82.3906 13.4824 82.3906 13.0723C82.3906 12.6387 82.4609 12.2812 82.6016 12C82.7422 11.707 82.918 11.4727 83.1289 11.2969C83.3398 11.1211 83.5684 10.998 83.8145 10.9277C84.0605 10.8457 84.2891 10.8047 84.5 10.8047ZM86.9961 16.5703C87.1133 16.5703 87.1719 16.7051 87.1719 16.9746C87.1719 17.1504 87.1484 17.4434 87.1016 17.8535C87.0664 18.252 87.0195 18.6797 86.9609 19.1367C86.8672 19.8633 86.7734 20.6719 86.6797 21.5625C86.5859 22.4414 86.4922 23.3496 86.3984 24.2871C86.3164 25.2129 86.2344 26.1328 86.1523 27.0469C86.082 27.9609 86.0176 28.8105 85.959 29.5957C85.9004 30.3691 85.8535 31.0547 85.8184 31.6523C85.7832 32.2383 85.7656 32.6719 85.7656 32.9531C85.7656 33.3164 85.7891 33.6152 85.8359 33.8496C85.8828 34.084 85.9414 34.2773 86.0117 34.4297C86.082 34.582 86.1582 34.7051 86.2402 34.7988C86.334 34.8926 86.4277 34.9746 86.5215 35.0449C86.627 35.1152 86.7559 35.1797 86.9082 35.2383C87.0605 35.2969 87.2246 35.3555 87.4004 35.4141C87.5762 35.4609 87.752 35.502 87.9277 35.5371C88.1152 35.5723 88.2852 35.5957 88.4375 35.6074C88.6836 35.6543 88.8828 35.6895 89.0352 35.7129C89.1875 35.7363 89.2637 35.8125 89.2637 35.9414C89.2637 36.1758 89.0117 36.293 88.5078 36.293C88.1562 36.293 87.8047 36.2695 87.4531 36.2227C87.1016 36.1641 86.7383 36.0996 86.3633 36.0293C86 35.959 85.6191 35.9004 85.2207 35.8535C84.8223 35.7949 84.3945 35.7656 83.9375 35.7656C83.5156 35.7656 83.1348 35.7773 82.7949 35.8008C82.4551 35.8242 82.1445 35.8535 81.8633 35.8887C81.582 35.9238 81.3184 35.9531 81.0723 35.9766C80.8262 36 80.5801 36.0117 80.334 36.0117C80.1348 36.0117 79.9531 35.9883 79.7891 35.9414C79.625 35.8828 79.543 35.7715 79.543 35.6074C79.543 35.4434 79.6309 35.332 79.8066 35.2734C79.9941 35.2031 80.1816 35.1504 80.3691 35.1152C80.6035 35.0684 80.832 35.0156 81.0547 34.957C81.2773 34.8984 81.4766 34.8105 81.6523 34.6934C81.8398 34.5645 81.9922 34.4004 82.1094 34.2012C82.2383 33.9902 82.3203 33.7207 82.3555 33.3926C82.4023 32.748 82.4375 32.0918 82.4609 31.4238C82.4844 30.7559 82.502 30.0996 82.5137 29.4551C82.5254 28.7988 82.5312 28.166 82.5312 27.5566C82.5312 26.9355 82.5312 26.3555 82.5312 25.8164C82.5312 25.1719 82.5312 24.5859 82.5312 24.0586C82.5312 23.5195 82.5195 23.0625 82.4961 22.6875C82.4727 22.0898 82.4023 21.6211 82.2852 21.2812C82.1797 20.9414 82.0215 20.6895 81.8105 20.5254C81.6113 20.3613 81.3535 20.2559 81.0371 20.209C80.7207 20.1504 80.3398 20.1035 79.8945 20.0684C79.7656 20.0449 79.6602 20.0039 79.5781 19.9453C79.5078 19.8867 79.4727 19.793 79.4727 19.6641C79.4727 19.4414 79.6484 19.3125 80 19.2773C80.1758 19.2656 80.3984 19.248 80.668 19.2246C80.9375 19.1895 81.248 19.1426 81.5996 19.084C81.9629 19.0254 82.3555 18.9434 82.7773 18.8379C83.1992 18.7207 83.6445 18.5625 84.1133 18.3633C84.6289 18.1523 85.0508 17.9414 85.3789 17.7305C85.7188 17.5195 85.9941 17.332 86.2051 17.168C86.416 16.9922 86.5801 16.8516 86.6973 16.7461C86.8145 16.6289 86.9141 16.5703 86.9961 16.5703ZM94.9238 16.3594C95.0176 16.3594 95.1113 16.5117 95.2051 16.8164C95.2988 17.1094 95.3926 17.4961 95.4863 17.9766C95.5801 18.457 95.6738 19.0137 95.7676 19.6465C95.8613 20.2676 95.9551 20.9004 96.0488 21.5449L96.6816 25.9746C96.7402 25.5879 96.8398 25.1426 96.9805 24.6387C97.1328 24.1348 97.332 23.6133 97.5781 23.0742C97.8242 22.5352 98.123 22.0078 98.4746 21.4922C98.8262 20.9766 99.2305 20.5137 99.6875 20.1035C100.156 19.6934 100.678 19.3652 101.252 19.1191C101.838 18.8613 102.488 18.7324 103.203 18.7324C104.082 18.7324 104.844 18.9023 105.488 19.2422C106.133 19.5703 106.666 20.0332 107.088 20.6309C107.51 21.2168 107.82 21.9199 108.02 22.7402C108.219 23.5605 108.318 24.457 108.318 25.4297C108.318 26.3086 108.266 27.1934 108.16 28.084C108.066 28.9629 107.961 29.8301 107.844 30.6855C107.738 31.541 107.633 32.3672 107.527 33.1641C107.434 33.9609 107.387 34.7051 107.387 35.3965C107.387 35.8066 107.422 36.1641 107.492 36.4688C107.562 36.7734 107.668 37.0547 107.809 37.3125C107.973 37.5586 108.172 37.7754 108.406 37.9629C108.652 38.1387 108.881 38.3086 109.092 38.4727C109.314 38.625 109.502 38.7832 109.654 38.9473C109.818 39.0996 109.9 39.2637 109.9 39.4395C109.9 39.5449 109.871 39.6328 109.812 39.7031C109.754 39.7852 109.654 39.8262 109.514 39.8262C109.303 39.8262 109.068 39.7441 108.811 39.5801C108.564 39.4277 108.254 39.2344 107.879 39C107.516 38.7539 107.076 38.4961 106.561 38.2266C106.045 37.9453 105.418 37.6875 104.68 37.4531C104.129 37.2656 103.572 37.1191 103.01 37.0137C102.459 36.9082 101.814 36.8379 101.076 36.8027C100.666 36.7676 100.461 36.6504 100.461 36.4512C100.461 36.2285 100.596 36.1172 100.865 36.1172C101.029 36.1172 101.258 36.1172 101.551 36.1172C101.844 36.1172 102.143 36.1055 102.447 36.082C102.916 36.0469 103.303 35.9062 103.607 35.6602C103.912 35.4023 104.141 34.9336 104.293 34.2539C104.34 33.9844 104.387 33.6445 104.434 33.2344C104.48 32.8125 104.521 32.3672 104.557 31.8984C104.592 31.418 104.621 30.9316 104.645 30.4395C104.668 29.9473 104.68 29.4785 104.68 29.0332C104.68 28.6348 104.674 28.1777 104.662 27.6621C104.65 27.1348 104.609 26.5898 104.539 26.0273C104.48 25.4648 104.381 24.9141 104.24 24.375C104.111 23.8359 103.918 23.3555 103.66 22.9336C103.402 22.5117 103.074 22.1719 102.676 21.9141C102.277 21.6445 101.791 21.5098 101.217 21.5098C100.725 21.5098 100.273 21.6328 99.8633 21.8789C99.4648 22.125 99.1074 22.4707 98.791 22.916C98.4746 23.3496 98.2051 23.8652 97.9824 24.4629C97.7598 25.0605 97.5898 25.7168 97.4727 26.4316C97.3438 27.1582 97.2559 27.9082 97.209 28.6816C97.1738 29.4434 97.1562 30.2051 97.1562 30.9668C97.1562 31.6113 97.1797 32.2324 97.2266 32.8301C97.2734 33.416 97.3379 33.9609 97.4199 34.4648C97.502 34.957 97.6016 35.3965 97.7188 35.7832C97.8359 36.1699 97.9707 36.4746 98.123 36.6973C98.3457 37.002 98.5859 37.2305 98.8438 37.3828C99.1016 37.5352 99.3184 37.6406 99.4941 37.6992C99.7285 37.7695 99.8926 37.834 99.9863 37.8926C100.092 37.9395 100.145 38.0098 100.145 38.1035C100.145 38.1738 100.086 38.2383 99.9688 38.2969C99.8633 38.3555 99.6816 38.3848 99.4238 38.3848C99.1777 38.3848 98.9082 38.3672 98.6152 38.332C98.3223 38.2852 98.0176 38.2383 97.7012 38.1914C97.3848 38.1445 97.0566 38.1035 96.7168 38.0684C96.377 38.0215 96.043 37.998 95.7148 37.998C95.3867 37.998 95.0527 38.0098 94.7129 38.0332C94.373 38.0566 94.0449 38.0801 93.7285 38.1035C93.4238 38.127 93.1426 38.1504 92.8848 38.1738C92.627 38.1973 92.4219 38.209 92.2695 38.209C91.8125 38.209 91.584 38.0625 91.584 37.7695C91.584 37.6641 91.6191 37.5762 91.6895 37.5059C91.7715 37.4238 91.9121 37.3711 92.1113 37.3477C92.2754 37.3359 92.4219 37.3242 92.5508 37.3125C92.6797 37.3008 92.8086 37.2949 92.9375 37.2949C93.0781 37.2832 93.2188 37.2715 93.3594 37.2598C93.5117 37.248 93.6875 37.2305 93.8867 37.207C94.2617 37.1484 94.5137 37.0137 94.6426 36.8027C94.7832 36.5801 94.8535 36.2812 94.8535 35.9062C94.8535 35.2617 94.7949 34.4766 94.6777 33.5508C94.5723 32.625 94.4258 31.6055 94.2383 30.4922C94.0508 29.3789 93.8223 28.2012 93.5527 26.959C93.2949 25.7051 93.0195 24.4277 92.7266 23.127C92.5859 22.459 92.4219 21.9609 92.2344 21.6328C92.0586 21.3047 91.8008 21.1406 91.4609 21.1406C91.2852 21.1406 91.1035 21.1758 90.916 21.2461C90.7285 21.3047 90.541 21.375 90.3535 21.457C90.1777 21.5273 90.0078 21.5977 89.8438 21.668C89.6797 21.7266 89.5273 21.7559 89.3867 21.7559C89.1641 21.7559 89.0527 21.6621 89.0527 21.4746C89.0527 21.3223 89.1113 21.2168 89.2285 21.1582C89.3574 21.0879 89.4922 21.0234 89.6328 20.9648C89.9609 20.8359 90.3125 20.6719 90.6875 20.4727C91.0742 20.2734 91.4902 20.0039 91.9355 19.6641C92.3691 19.3242 92.7559 18.9609 93.0957 18.5742C93.4355 18.1875 93.7285 17.8301 93.9746 17.502C94.2207 17.1738 94.4199 16.9043 94.5723 16.6934C94.7246 16.4707 94.8418 16.3594 94.9238 16.3594ZM118.004 0.486328C118.168 0.486328 118.273 0.533203 118.32 0.626953C118.367 0.720703 118.391 0.814453 118.391 0.908203C118.391 1.07227 118.367 1.29492 118.32 1.57617C118.273 1.8457 118.215 2.20898 118.145 2.66602C118.074 3.12305 117.992 3.69141 117.898 4.37109C117.816 5.03906 117.729 5.85352 117.635 6.81445C117.506 8.16211 117.389 9.52148 117.283 10.8926C117.189 12.2637 117.102 13.5996 117.02 14.9004C116.949 16.2012 116.885 17.4492 116.826 18.6445C116.768 19.8281 116.715 20.918 116.668 21.9141C116.633 22.9102 116.604 23.7891 116.58 24.5508C116.557 25.3125 116.539 25.916 116.527 26.3613C116.715 25.8105 116.967 25.2598 117.283 24.709C117.611 24.1582 118.004 23.6602 118.461 23.2148C118.918 22.7695 119.445 22.4121 120.043 22.1426C120.641 21.8613 121.303 21.7207 122.029 21.7207C122.463 21.7207 122.92 21.7793 123.4 21.8965C123.881 22.002 124.344 22.2012 124.789 22.4941C125.246 22.7871 125.656 23.1855 126.02 23.6895C126.395 24.1816 126.688 24.8203 126.898 25.6055C127.086 26.3672 127.203 27.1172 127.25 27.8555C127.297 28.582 127.32 29.3672 127.32 30.2109C127.32 30.8438 127.309 31.5469 127.285 32.3203C127.262 33.0938 127.25 33.8789 127.25 34.6758C127.25 35.2031 127.297 35.6191 127.391 35.9238C127.496 36.2168 127.637 36.4395 127.812 36.5918C128 36.7441 128.217 36.8438 128.463 36.8906C128.721 36.9375 129.002 36.9668 129.307 36.9785C129.424 36.9902 129.541 37.002 129.658 37.0137C129.787 37.0254 129.898 37.0488 129.992 37.084C130.098 37.1191 130.18 37.1719 130.238 37.2422C130.309 37.3125 130.344 37.4062 130.344 37.5234C130.344 37.6523 130.279 37.7695 130.15 37.875C130.021 37.9805 129.787 38.0332 129.447 38.0332C128.979 38.0332 128.463 37.9805 127.9 37.875C127.35 37.7578 126.723 37.6992 126.02 37.6992C125.574 37.6992 125.105 37.7461 124.613 37.8398C124.133 37.9336 123.664 38.0391 123.207 38.1562C122.762 38.2617 122.352 38.3613 121.977 38.4551C121.602 38.5488 121.309 38.5957 121.098 38.5957C120.91 38.5957 120.793 38.5664 120.746 38.5078C120.711 38.4375 120.693 38.373 120.693 38.3145C120.693 38.2207 120.729 38.1504 120.799 38.1035C120.869 38.0449 121.004 37.9863 121.203 37.9277C121.438 37.8457 121.643 37.7695 121.818 37.6992C122.006 37.6289 122.176 37.5469 122.328 37.4531C122.504 37.3477 122.668 37.1777 122.82 36.9434C122.984 36.6973 123.107 36.3047 123.189 35.7656C123.225 35.4727 123.254 35.1328 123.277 34.7461C123.301 34.3477 123.318 33.9316 123.33 33.498C123.354 33.0527 123.371 32.5957 123.383 32.127C123.395 31.6582 123.4 31.1895 123.4 30.7207C123.4 29.9473 123.389 29.2207 123.365 28.541C123.342 27.8496 123.295 27.2812 123.225 26.8359C123.072 25.8516 122.791 25.0723 122.381 24.498C121.971 23.9238 121.385 23.6367 120.623 23.6367C120.26 23.6367 119.932 23.707 119.639 23.8477C119.357 23.9883 119.105 24.1699 118.883 24.3926C118.66 24.6152 118.461 24.8672 118.285 25.1484C118.109 25.4297 117.957 25.7168 117.828 26.0098C117.594 26.5137 117.371 27.1582 117.16 27.9434C116.949 28.7285 116.768 29.5781 116.615 30.4922C116.463 31.3945 116.34 32.3203 116.246 33.2695C116.164 34.207 116.123 35.0859 116.123 35.9062C116.123 36.293 116.17 36.6094 116.264 36.8555C116.357 37.0898 116.492 37.2832 116.668 37.4355C116.855 37.5762 117.072 37.6875 117.318 37.7695C117.576 37.8516 117.863 37.9277 118.18 37.998C118.344 38.0332 118.473 38.0801 118.566 38.1387C118.672 38.1855 118.725 38.2793 118.725 38.4199C118.725 38.6895 118.52 38.8242 118.109 38.8242C117.793 38.8242 117.406 38.7891 116.949 38.7188C116.504 38.6367 116.023 38.5488 115.508 38.4551C115.004 38.3496 114.482 38.2617 113.943 38.1914C113.416 38.1094 112.906 38.0684 112.414 38.0684C111.77 38.0684 111.195 38.0977 110.691 38.1562C110.188 38.2148 109.754 38.2441 109.391 38.2441C108.887 38.2441 108.635 38.0859 108.635 37.7695C108.635 37.6406 108.688 37.541 108.793 37.4707C108.887 37.3887 109.016 37.3477 109.18 37.3477C109.285 37.3477 109.408 37.3535 109.549 37.3652C109.689 37.377 109.83 37.3828 109.971 37.3828C110.393 37.3828 110.756 37.3359 111.061 37.2422C111.365 37.1367 111.623 36.9609 111.834 36.7148C112.057 36.4688 112.244 36.1406 112.396 35.7305C112.549 35.3086 112.678 34.7812 112.783 34.1484C112.854 33.7383 112.93 33.1113 113.012 32.2676C113.105 31.4238 113.205 30.4453 113.311 29.332C113.416 28.207 113.521 26.9883 113.627 25.6758C113.732 24.3516 113.832 23.0098 113.926 21.6504C114.031 20.2793 114.131 18.9316 114.225 17.6074C114.318 16.2715 114.395 15.0293 114.453 13.8809C114.523 12.7324 114.576 11.7188 114.611 10.8398C114.658 9.94922 114.682 9.26953 114.682 8.80078C114.682 8.10938 114.617 7.56445 114.488 7.16602C114.371 6.75586 114.219 6.44531 114.031 6.23438C113.844 6.02344 113.633 5.88867 113.398 5.83008C113.176 5.77148 112.959 5.74219 112.748 5.74219C112.537 5.74219 112.309 5.76562 112.062 5.8125C111.816 5.84766 111.564 5.88867 111.307 5.93555C111.061 5.98242 110.814 6.0293 110.568 6.07617C110.334 6.11133 110.111 6.12891 109.9 6.12891C109.713 6.12891 109.584 6.09375 109.514 6.02344C109.432 5.94141 109.391 5.83594 109.391 5.70703C109.391 5.55469 109.438 5.4375 109.531 5.35547C109.625 5.27344 109.771 5.19727 109.971 5.12695C110.252 5.0332 110.557 4.93945 110.885 4.8457C111.213 4.75195 111.564 4.64062 111.939 4.51172C112.326 4.37109 112.736 4.20703 113.17 4.01953C113.604 3.82031 114.072 3.57422 114.576 3.28125C115.15 2.95313 115.619 2.625 115.982 2.29688C116.346 1.95703 116.65 1.6582 116.896 1.40039C117.143 1.13086 117.342 0.914063 117.494 0.75C117.658 0.574219 117.828 0.486328 118.004 0.486328ZM135.793 26.3262C135.359 26.3262 134.949 26.2441 134.562 26.0801C134.188 25.916 133.859 25.6699 133.578 25.3418C133.297 25.0137 133.074 24.6035 132.91 24.1113C132.746 23.6191 132.664 23.0391 132.664 22.3711C132.664 21.6445 132.764 20.9355 132.963 20.2441C133.174 19.541 133.496 18.9199 133.93 18.3809C134.363 17.8301 134.914 17.3906 135.582 17.0625C136.262 16.7344 137.076 16.5703 138.025 16.5703C138.811 16.5703 139.502 16.6758 140.1 16.8867C140.709 17.0859 141.242 17.3613 141.699 17.7129C142.156 18.0527 142.543 18.4512 142.859 18.9082C143.188 19.3652 143.463 19.8457 143.686 20.3496C143.908 20.8418 144.09 21.3457 144.23 21.8613C144.383 22.3652 144.512 22.8457 144.617 23.3027C144.676 23.5605 144.746 23.9297 144.828 24.4102C144.922 24.8789 145.021 25.4238 145.127 26.0449C145.232 26.666 145.344 27.334 145.461 28.0488C145.578 28.752 145.695 29.4668 145.812 30.1934C145.93 30.9199 146.041 31.6289 146.146 32.3203C146.264 33 146.369 33.627 146.463 34.2012C146.557 34.7637 146.633 35.25 146.691 35.6602C146.762 36.0586 146.814 36.334 146.85 36.4863C146.92 36.8496 146.996 37.2188 147.078 37.5938C147.172 37.9688 147.283 38.3145 147.412 38.6309C147.553 38.9355 147.723 39.1875 147.922 39.3867C148.121 39.5859 148.373 39.6855 148.678 39.6855C148.854 39.6855 149.006 39.6445 149.135 39.5625C149.264 39.4805 149.363 39.3691 149.434 39.2285C149.516 39.0879 149.574 38.9297 149.609 38.7539C149.645 38.5781 149.662 38.3965 149.662 38.209C149.662 37.9863 149.656 37.7637 149.645 37.541C149.633 37.3066 149.627 37.1074 149.627 36.9434C149.627 36.7676 149.65 36.6152 149.697 36.4863C149.744 36.3574 149.838 36.293 149.979 36.293C150.107 36.293 150.207 36.3691 150.277 36.5215C150.359 36.6621 150.418 36.832 150.453 37.0312C150.5 37.2188 150.529 37.4121 150.541 37.6113C150.553 37.7988 150.559 37.9395 150.559 38.0332C150.559 38.4434 150.523 38.9062 150.453 39.4219C150.383 39.9375 150.236 40.4355 150.014 40.916C149.803 41.4082 149.451 41.8125 148.959 42.1289C148.467 42.4453 147.898 42.6035 147.254 42.6035C146.691 42.6035 146.205 42.5215 145.795 42.3574C145.396 42.1934 145.051 41.9883 144.758 41.7422C144.477 41.4961 144.236 41.2324 144.037 40.9512C143.85 40.6699 143.697 40.4062 143.58 40.1602C143.252 39.5273 143 38.8359 142.824 38.0859C142.66 37.3242 142.525 36.5977 142.42 35.9062C142.244 36.1992 141.975 36.5625 141.611 36.9961C141.26 37.4297 140.82 37.8457 140.293 38.2441C139.766 38.6426 139.156 38.9824 138.465 39.2637C137.773 39.5449 137.006 39.6855 136.162 39.6855C135.225 39.6855 134.422 39.5508 133.754 39.2812C133.098 39.0234 132.559 38.6719 132.137 38.2266C131.715 37.7695 131.404 37.2422 131.205 36.6445C131.006 36.0352 130.906 35.3906 130.906 34.7109C130.906 33.9844 131.041 33.252 131.311 32.5137C131.58 31.7754 132.02 31.1074 132.629 30.5098C133.25 29.9121 134.053 29.4258 135.037 29.0508C136.033 28.6758 137.246 28.4883 138.676 28.4883C139.004 28.4883 139.32 28.5059 139.625 28.541C139.941 28.5645 140.223 28.5938 140.469 28.6289C140.727 28.6641 140.943 28.6992 141.119 28.7344C141.307 28.7695 141.441 28.793 141.523 28.8047C141.453 27.7969 141.365 26.7891 141.26 25.7812C141.213 25.3594 141.16 24.9141 141.102 24.4453C141.055 23.9766 141.002 23.5078 140.943 23.0391C140.885 22.5586 140.82 22.0898 140.75 21.6328C140.68 21.1758 140.604 20.748 140.521 20.3496C140.334 19.4473 139.965 18.7324 139.414 18.2051C138.875 17.666 138.184 17.3965 137.34 17.3965C136.883 17.3965 136.479 17.4785 136.127 17.6426C135.787 17.8066 135.494 18.0176 135.248 18.2754C135.014 18.5332 134.838 18.8262 134.721 19.1543C134.604 19.4707 134.545 19.7871 134.545 20.1035C134.545 20.4434 134.627 20.7305 134.791 20.9648C134.955 21.1875 135.154 21.3867 135.389 21.5625C135.635 21.7383 135.898 21.9082 136.18 22.0723C136.461 22.2246 136.719 22.4062 136.953 22.6172C137.199 22.8164 137.404 23.0625 137.568 23.3555C137.732 23.6367 137.814 23.9941 137.814 24.4277C137.814 25.002 137.615 25.4648 137.217 25.8164C136.83 26.1562 136.355 26.3262 135.793 26.3262ZM141.664 29.8945C141.582 29.8594 141.436 29.8184 141.225 29.7715C141.025 29.7129 140.785 29.6602 140.504 29.6133C140.223 29.5547 139.918 29.5078 139.59 29.4727C139.273 29.4375 138.957 29.4199 138.641 29.4199C138.02 29.4199 137.439 29.5078 136.9 29.6836C136.373 29.8594 135.916 30.123 135.529 30.4746C135.143 30.8145 134.838 31.248 134.615 31.7754C134.393 32.291 134.281 32.8887 134.281 33.5684C134.281 34.1895 134.381 34.7051 134.58 35.1152C134.791 35.5137 135.055 35.8301 135.371 36.0645C135.699 36.2988 136.057 36.4629 136.443 36.5566C136.842 36.6504 137.229 36.6973 137.604 36.6973C138.201 36.6973 138.77 36.6035 139.309 36.416C139.848 36.2285 140.322 36.0117 140.732 35.7656C141.143 35.5195 141.477 35.2793 141.734 35.0449C141.992 34.8105 142.15 34.6523 142.209 34.5703C142.127 33.7852 142.051 33.0703 141.98 32.4258C141.945 32.1445 141.91 31.8691 141.875 31.5996C141.852 31.3301 141.822 31.0781 141.787 30.8438C141.764 30.6094 141.74 30.4102 141.717 30.2461C141.693 30.082 141.676 29.9648 141.664 29.8945ZM161.896 16.4648C162.377 16.4648 162.781 16.4883 163.109 16.5352C163.449 16.582 163.736 16.6406 163.971 16.7109C164.217 16.7695 164.428 16.8223 164.604 16.8691C164.779 16.916 164.955 16.9395 165.131 16.9395C165.33 16.9395 165.482 16.834 165.588 16.623C165.705 16.4121 165.816 16.1543 165.922 15.8496C166.074 15.4395 166.256 15.2344 166.467 15.2344C166.654 15.2344 166.771 15.293 166.818 15.4102C166.877 15.5273 166.906 15.6387 166.906 15.7441C166.906 15.8848 166.889 16.0312 166.854 16.1836C166.83 16.3242 166.789 16.5117 166.73 16.7461C166.672 16.9805 166.602 17.2734 166.52 17.625C166.449 17.9766 166.373 18.416 166.291 18.9434C166.221 19.377 166.162 19.752 166.115 20.0684C166.08 20.3848 166.051 20.666 166.027 20.9121C166.016 21.1582 165.998 21.3809 165.975 21.5801C165.951 21.7793 165.922 21.9844 165.887 22.1953C165.816 22.6406 165.664 22.8633 165.43 22.8633C165.277 22.8633 165.178 22.793 165.131 22.6523C165.084 22.5 165.061 22.3359 165.061 22.1602V20.7891C165.061 20.0977 164.979 19.5176 164.814 19.0488C164.662 18.5801 164.445 18.2051 164.164 17.9238C163.895 17.6426 163.566 17.4434 163.18 17.3262C162.805 17.209 162.4 17.1504 161.967 17.1504C161.58 17.1504 161.205 17.2148 160.842 17.3438C160.49 17.4727 160.18 17.666 159.91 17.9238C159.641 18.1699 159.424 18.4746 159.26 18.8379C159.096 19.2012 159.014 19.6113 159.014 20.0684C159.014 20.666 159.154 21.2461 159.436 21.8086C159.717 22.3711 160.086 22.9219 160.543 23.4609C161 24 161.516 24.5449 162.09 25.0957C162.676 25.6348 163.273 26.1914 163.883 26.7656C164.504 27.3398 165.102 27.9375 165.676 28.5586C166.262 29.1797 166.783 29.8418 167.24 30.5449C167.697 31.2363 168.066 31.9746 168.348 32.7598C168.629 33.5449 168.77 34.3887 168.77 35.291C168.77 36.498 168.582 37.5703 168.207 38.5078C167.832 39.4336 167.328 40.2129 166.695 40.8457C166.062 41.4785 165.324 41.959 164.48 42.2871C163.637 42.6152 162.74 42.7793 161.791 42.7793C161.135 42.7793 160.52 42.709 159.945 42.5684C159.383 42.4277 158.861 42.2461 158.381 42.0234C157.912 41.8008 157.49 41.543 157.115 41.25C156.74 40.9688 156.424 40.6875 156.166 40.4062C155.686 39.8672 155.275 39.457 154.936 39.1758C154.596 38.8945 154.227 38.7539 153.828 38.7539C153.617 38.7539 153.389 38.8301 153.143 38.9824C152.896 39.1348 152.65 39.2988 152.404 39.4746C152.17 39.6504 151.947 39.8145 151.736 39.9668C151.525 40.1191 151.35 40.1953 151.209 40.1953C151.08 40.1953 150.986 40.1543 150.928 40.0723C150.869 40.002 150.84 39.9316 150.84 39.8613C150.84 39.7207 150.928 39.5684 151.104 39.4043C151.174 39.334 151.309 39.2051 151.508 39.0176C151.719 38.8301 151.977 38.584 152.281 38.2793C152.586 37.9746 152.926 37.5996 153.301 37.1543C153.688 36.709 154.092 36.1934 154.514 35.6074C154.912 35.0566 155.24 34.541 155.498 34.0605C155.756 33.5684 155.979 33.1465 156.166 32.7949C156.354 32.4316 156.518 32.1445 156.658 31.9336C156.811 31.7227 156.975 31.6172 157.15 31.6172C157.326 31.6172 157.438 31.6699 157.484 31.7754C157.543 31.8809 157.572 31.998 157.572 32.127C157.572 32.3027 157.508 32.5312 157.379 32.8125C157.25 33.0938 157.109 33.4336 156.957 33.832C156.816 34.2305 156.682 34.6934 156.553 35.2207C156.424 35.748 156.359 36.3457 156.359 37.0137C156.359 37.4004 156.436 37.8516 156.588 38.3672C156.74 38.8828 156.986 39.3691 157.326 39.8262C157.666 40.2832 158.111 40.6699 158.662 40.9863C159.225 41.3145 159.904 41.4785 160.701 41.4785C161.334 41.4785 161.902 41.3613 162.406 41.127C162.922 40.8926 163.361 40.5586 163.725 40.125C164.088 39.7031 164.363 39.1992 164.551 38.6133C164.75 38.0156 164.85 37.3535 164.85 36.627C164.85 35.7012 164.633 34.8105 164.199 33.9551C163.766 33.0879 163.221 32.2441 162.564 31.4238C161.908 30.5918 161.199 29.7773 160.438 28.9805C159.676 28.1836 158.967 27.3926 158.311 26.6074C157.654 25.8105 157.109 25.0137 156.676 24.2168C156.242 23.4199 156.025 22.6113 156.025 21.791C156.025 20.877 156.195 20.0859 156.535 19.418C156.875 18.7383 157.32 18.1816 157.871 17.748C158.434 17.3145 159.061 16.9922 159.752 16.7812C160.455 16.5703 161.17 16.4648 161.896 16.4648Z" fill="white"/>
</svg>
