<svg width="51" height="49" viewBox="0 0 51 49" fill="none" xmlns="http://www.w3.org/2000/svg">
<path d="M25.5 0.916656C11.9177 0.916656 0.916691 11.9177 0.916691 25.5C0.913902 30.6607 2.53627 35.6913 5.55364 39.878C8.571 44.0647 12.8301 47.195 17.7268 48.8247C18.9559 49.0385 19.4156 48.301 19.4156 47.6545C19.4156 47.0719 19.3837 45.1372 19.3837 43.0771C13.2084 44.2153 11.6104 41.5726 11.1188 40.1885C10.841 39.4805 9.64377 37.3 8.59898 36.7149C7.73857 36.2552 6.5094 35.117 8.56702 35.0875C10.5042 35.0555 11.8858 36.8698 12.3479 37.6073C14.5604 41.3243 18.0955 40.2795 19.5066 39.6354C19.7229 38.0375 20.367 36.9632 21.075 36.3486C15.6052 35.734 9.88961 33.6125 9.88961 24.2094C9.88961 21.5347 10.841 19.3247 12.4094 17.6014C12.1636 16.9868 11.3031 14.467 12.6552 11.0868C12.6552 11.0868 14.7129 10.4427 19.4156 13.609C21.4169 13.0536 23.4846 12.774 25.5615 12.7781C27.6511 12.7781 29.7406 13.0534 31.7073 13.6066C36.4076 10.4107 38.4677 11.0892 38.4677 11.0892C39.8198 14.4694 38.9594 16.9892 38.7136 17.6038C40.2795 19.3247 41.2334 21.5052 41.2334 24.2094C41.2334 33.6444 35.4882 35.734 30.0184 36.3486C30.9084 37.1156 31.6778 38.5906 31.6778 40.8965C31.6778 44.1833 31.6459 46.826 31.6459 47.6569C31.6459 48.301 32.108 49.068 33.3372 48.8222C38.2171 47.1746 42.4574 44.0383 45.4614 39.8546C48.4655 35.6709 50.082 30.6505 50.0834 25.5C50.0834 11.9177 39.0823 0.916656 25.5 0.916656Z" fill="white"/>
</svg>
