<svg width="41" height="37" viewBox="0 0 41 37" fill="none" xmlns="http://www.w3.org/2000/svg">
<path d="M14.375 0.125C14.375 1.74945 15.0203 3.30737 16.1689 4.45603C17.3176 5.60469 18.8755 6.25 20.5 6.25C22.1244 6.25 23.6823 5.60469 24.831 4.45603C25.9797 3.30737 26.625 1.74945 26.625 0.125H38.875C39.4165 0.125 39.9358 0.340103 40.3187 0.72299C40.7015 1.10588 40.9166 1.62518 40.9166 2.16667V16.4583C40.9166 16.9998 40.7015 17.5191 40.3187 17.902C39.9358 18.2849 39.4165 18.5 38.875 18.5H34.7896L34.7916 34.8333C34.7916 35.3748 34.5765 35.8941 34.1937 36.277C33.8108 36.6599 33.2915 36.875 32.75 36.875H8.24998C7.7085 36.875 7.18919 36.6599 6.8063 36.277C6.42342 35.8941 6.20831 35.3748 6.20831 34.8333L6.20627 18.498L2.12498 18.5C1.5835 18.5 1.06419 18.2849 0.681303 17.902C0.298416 17.5191 0.083313 16.9998 0.083313 16.4583V2.16667C0.083313 1.62518 0.298416 1.10588 0.681303 0.72299C1.06419 0.340103 1.5835 0.125 2.12498 0.125H14.375ZM36.8333 4.20629H29.8569L29.8222 4.29C29.048 6.02103 27.807 7.5023 26.2384 8.56787C24.6698 9.63343 22.8355 10.2412 20.941 10.3231L20.5 10.3333C18.5285 10.3335 16.5992 9.76295 14.945 8.69055C13.2907 7.61815 11.9823 6.08978 11.1777 4.29L11.141 4.20833H4.16665V14.4167L10.2896 14.4146V32.7917H30.7083L30.7063 14.4167L36.8333 14.4146V4.20629Z" fill="white"/>
</svg>
